<?xml version="1.0" encoding="UTF-8"?>
<svg width="110px" height="37px" viewBox="0 0 110 37" version="1.1" xmlns="http://www.w3.org/2000/svg" xmlns:xlink="http://www.w3.org/1999/xlink">
    <!-- Generator: Sketch 51.2 (57519) - http://www.bohemiancoding.com/sketch -->
    <title>BWC-Logo</title>
    <desc>Created with Sketch.</desc>
    <defs></defs>
    <g id="Authorization" stroke="none" stroke-width="1" fill="none" fill-rule="evenodd">
        <g id="BWC-Sign-Up-Default" transform="translate(-17.000000, -17.000000)">
            <g id="Content">
                <g id="BWC-Logo" transform="translate(17.000000, 17.000000)">
                    <path d="M42.8240741,19.8703704 C42.8240741,29.330037 35.1541111,37 25.6944444,37 C16.2347778,37 8.56481481,29.330037 8.56481481,19.8703704 C8.56481481,10.4107037 16.2347778,2.74074074 25.6944444,2.74074074 C35.1541111,2.74074074 42.8240741,10.4107037 42.8240741,19.8703704" id="Fill-1" fill="#FF2773"></path>
                    <path d="M27.4074074,13.7037037 C27.4074074,21.2722593 21.2722593,27.4074074 13.7037037,27.4074074 C6.13514815,27.4074074 0,21.2722593 0,13.7037037 C0,6.13514815 6.13514815,0 13.7037037,0 C21.2722593,0 27.4074074,6.13514815 27.4074074,13.7037037" id="Fill-3" fill-opacity="0.8" fill="#FFC706"></path>
                    <path d="M21.9259259,23.2962963 C21.9259259,28.9723704 17.3242222,33.5740741 11.6481481,33.5740741 C5.97207407,33.5740741 1.37037037,28.9723704 1.37037037,23.2962963 C1.37037037,17.6202222 5.97207407,13.0185185 11.6481481,13.0185185 C17.3242222,13.0185185 21.9259259,17.6202222 21.9259259,23.2962963" id="Fill-5" fill-opacity="0.8" fill="#36B4FF"></path>
                    <path d="M54.0078037,26.0142889 L58.6204704,26.0142889 C59.7003222,26.0142889 60.5266556,25.8416222 61.1008407,25.4949185 C61.6736556,25.1482148 61.9614333,24.4931778 61.9614333,23.5298074 C61.9614333,21.9579926 60.7212481,21.1727704 58.2463593,21.1727704 L54.0078037,21.1727704 L54.0078037,26.0142889 Z M54.0078037,18.4087333 L57.7475444,18.4087333 C59.8743593,18.4087333 60.939137,17.6742148 60.939137,16.2038074 C60.939137,15.3582889 60.680137,14.7498444 60.1662481,14.3784741 C59.6496185,14.0057333 58.852063,13.8207333 57.7722111,13.8207333 L54.0078037,13.8207333 L54.0078037,18.4087333 Z M58.6944704,28.7783259 L51.0669889,28.7783259 L51.0669889,11.0566963 L57.8475815,11.0566963 C59.0274704,11.0566963 60.0442852,11.2005852 60.9007667,11.4869926 C61.7572481,11.7747704 62.3931,12.1639556 62.8083222,12.6531778 C63.6058778,13.5672148 64.0046556,14.5977333 64.0046556,15.7474741 C64.0046556,17.1329185 63.5716185,18.163437 62.7082852,18.8404 C62.3931,19.0774741 62.1765815,19.2241037 62.0601,19.2830296 C61.9436185,19.3433259 61.7366926,19.4406222 61.4365815,19.5749185 C62.5178037,19.8119926 63.3770259,20.3066963 64.0169889,21.0576593 C64.6569519,21.8099926 64.9776185,22.7445852 64.9776185,23.8600667 C64.9776185,25.0934 64.5610259,26.1842148 63.7305815,27.1297704 C62.7493963,28.2288074 61.0706926,28.7783259 58.6944704,28.7783259 Z" id="Fill-7" fill="#231F20"></path>
                    <path d="M87.2895778,11.0566963 L90.1563926,11.0566963 L90.1563926,21.9840296 C90.1563926,24.1971778 89.6205778,25.9169926 88.5475778,27.1421037 C87.4759481,28.3685852 85.9383926,28.9811407 83.9362815,28.9811407 C81.9328,28.9811407 80.3829111,28.1863259 79.2866148,26.5980667 C78.1409852,28.1863259 76.5815037,28.9811407 74.6136519,28.9811407 C72.6430593,28.9811407 71.1233185,28.3685852 70.0503185,27.1421037 C68.9786889,25.9169926 68.4428741,24.1971778 68.4428741,21.9840296 L68.4428741,11.0566963 L71.3096889,11.0566963 L71.3096889,21.9840296 C71.3096889,23.3023259 71.5960963,24.3205111 72.1689111,25.0385852 C72.7430963,25.7580296 73.5488741,26.1156963 74.5876148,26.1156963 C75.6263556,26.1156963 76.4198,25.7580296 76.9679481,25.0385852 C77.5174667,24.3205111 77.7915407,23.3023259 77.7915407,21.9840296 L77.8162074,11.0566963 L80.7583926,11.0566963 L80.7816889,21.9840296 C80.7816889,23.3023259 81.0571333,24.3205111 81.6052815,25.0385852 C82.1534296,25.7580296 82.9482444,26.1156963 83.9856148,26.1156963 C85.0243556,26.1156963 85.8342444,25.7580296 86.4166519,25.0385852 C86.9990593,24.3205111 87.2895778,23.3023259 87.2895778,21.9840296 L87.2895778,11.0566963 Z" id="Fill-9" fill="#231F20"></path>
                    <path d="M102.638548,26.0651296 C103.64303,26.0651296 104.507733,25.892463 105.232659,25.5457593 C105.956215,25.1990556 106.71403,24.6454259 107.504733,23.8848704 L109.382141,25.8623148 C107.554067,27.9411667 105.335437,28.9799074 102.724881,28.9799074 C100.114326,28.9799074 97.9491407,28.1193148 96.2279556,26.3940185 C94.5067704,24.6700926 93.6461778,22.4912037 93.6461778,19.8546111 C93.6461778,17.2166481 94.5232148,15.0199444 96.2772889,13.2617593 C98.031363,11.5049444 100.245881,10.6251667 102.922215,10.6251667 C105.598548,10.6251667 107.834993,11.6406111 109.630178,13.6687593 L107.777437,15.7476111 C106.952474,14.9349815 106.175474,14.3690185 105.442326,14.0483519 C104.709178,13.7276852 103.848585,13.5659815 102.860548,13.5659815 C101.114696,13.5659815 99.6497704,14.1456481 98.4630296,15.3022407 C97.2776593,16.4615741 96.6842889,17.9402037 96.6842889,19.7395 C96.6842889,21.5401667 97.2735481,23.0448333 98.4506963,24.2521296 C99.6292148,25.4607963 101.024252,26.0651296 102.638548,26.0651296" id="Fill-11" fill="#231F20"></path>
                </g>
            </g>
        </g>
    </g>
</svg>