<?xml version="1.0" encoding="utf-8"?>
<!-- Generator: Adobe Illustrator 23.0.0, SVG Export Plug-In . SVG Version: 6.00 Build 0)  -->
<svg version="1.1" id="Шар_1" xmlns="http://www.w3.org/2000/svg" xmlns:xlink="http://www.w3.org/1999/xlink" x="0px" y="0px"
	 viewBox="0 0 10 13" style="enable-background:new 0 0 10 13;" xml:space="preserve">
<style type="text/css">
	.st0{fill:#8998DF;}
</style>
<title>ico-File</title>
<desc>Created with Sketch.</desc>
<g id="clip">
</g>
<path class="st0" d="M5.6,0H1.2C0.6,0,0,0.6,0,1.3v10.4C0,12.4,0.6,13,1.2,13h7.5c0.7,0,1.2-0.6,1.2-1.3V4.6L5.6,0z M9,5H6V1.8L9,5
	L9,5z M8.8,12H1.2C1.1,12,1,11.9,1,11.7V1.3C1,1.1,1.1,1,1.2,1h3.9l0.1,0.1C5.1,1.2,5,1.3,5,1.5v4C5,5.8,5.2,6,5.5,6H9v5.7
	C9,11.9,8.9,12,8.8,12z"/>
</svg>
